<?xml version="1.0" standalone="no"?>
<!DOCTYPE svg PUBLIC "-//W3C//DTD SVG 20010904//EN"
 "http://www.w3.org/TR/2001/REC-SVG-20010904/DTD/svg10.dtd">
<svg version="1.0" xmlns="http://www.w3.org/2000/svg"
 width="256.000000pt" height="256.000000pt" viewBox="0 0 256.000000 256.000000"
 preserveAspectRatio="xMidYMid meet">

<g transform="translate(0.000000,256.000000) scale(0.100000,-0.100000)"
fill="#000000" stroke="none">
<path d="M0 1280 l0 -1280 1280 0 1280 0 0 1280 0 1280 -1280 0 -1280 0 0
-1280z m1523 1169 c511 -101 901 -540 946 -1066 19 -219 -20 -429 -119 -628
-67 -137 -129 -223 -233 -324 -105 -104 -177 -155 -312 -221 -336 -166 -716
-166 -1050 -1 -250 124 -422 296 -546 546 -223 451 -136 1001 215 1357 103
105 194 171 331 239 243 120 493 152 768 98z"/>
<path d="M993 1820 c-55 -33 -77 -102 -53 -166 6 -14 82 -100 170 -189 112
-114 160 -169 160 -185 0 -16 -46 -70 -154 -179 -155 -157 -186 -199 -186
-246 0 -43 27 -93 62 -115 26 -16 45 -20 86 -17 l54 4 234 234 c130 129 242
246 250 261 18 34 18 81 0 116 -8 15 -122 134 -253 265 l-239 237 -49 0 c-32
0 -62 -7 -82 -20z"/>
</g>
</svg>
