<?xml version="1.0" standalone="no"?>
<!DOCTYPE svg PUBLIC "-//W3C//DTD SVG 20010904//EN"
 "http://www.w3.org/TR/2001/REC-SVG-20010904/DTD/svg10.dtd">
<svg version="1.0" xmlns="http://www.w3.org/2000/svg"
 width="256.000000pt" height="256.000000pt" viewBox="0 0 256.000000 256.000000"
 preserveAspectRatio="xMidYMid meet">

<g transform="translate(0.000000,256.000000) scale(0.100000,-0.100000)"
fill="#000000" stroke="none">
<path d="M0 1280 l0 -1280 1280 0 1280 0 0 1280 0 1280 -1280 0 -1280 0 0
-1280z m1523 1169 c227 -45 436 -158 604 -328 298 -300 414 -730 308 -1147
-30 -120 -122 -309 -197 -409 -351 -462 -969 -610 -1483 -356 -250 124 -422
296 -546 546 -165 334 -165 716 0 1050 68 137 130 223 234 324 105 103 177
155 312 221 243 121 493 153 768 99z"/>
<path d="M1197 1603 c-131 -131 -245 -250 -253 -265 -18 -35 -18 -82 0 -116 8
-15 120 -132 249 -261 235 -234 235 -234 284 -238 109 -11 181 82 143 183 -6
14 -82 100 -170 189 -112 114 -160 169 -160 185 0 16 46 70 154 179 84 86 161
170 170 188 48 94 -18 193 -129 193 l-49 0 -239 -237z"/>
</g>
</svg>
